<svg width="24" height="24" viewBox="0 0 24 24" fill="none" xmlns="http://www.w3.org/2000/svg">
    <path d="M12 0C5.373 0 0 5.37225 0 12C0 18.6278 5.37225 24 12 24C18.6278 24 24 18.6278 24 12C24 5.37225 18.6278 0 12 0ZM12 22.524C6.21 22.524 1.5 17.79 1.5 12C1.5 6.21 6.21 1.5 12 1.5C17.79 1.5 22.5 6.21 22.5 12C22.5 17.79 17.79 22.524 12 22.524ZM12.4777 7.46775C12.1852 7.76025 12.1852 8.23575 12.4777 8.52825L15.1905 11.241H6.7425C6.32775 11.241 5.9925 11.577 5.9925 11.991C5.9925 12.405 6.32775 12.741 6.7425 12.741H15.2377L12.4777 15.501C12.1852 15.7935 12.1852 16.2683 12.4777 16.5615C12.624 16.7078 12.816 16.7812 13.008 16.7812C13.2 16.7812 13.392 16.7078 13.5382 16.5615L17.9685 12.0142L13.5382 7.467C13.245 7.1745 12.771 7.1745 12.477 7.467L12.4777 7.46775Z" fill="#BC861B"/>
</svg>
