<svg width="40" height="40" viewBox="0 0 40 40" fill="none" xmlns="http://www.w3.org/2000/svg">
<g clip-path="url(#clip0_143_15590)">
<path fill-rule="evenodd" clip-rule="evenodd" d="M25.6501 12.0027C24.2524 10.5579 21.8188 10.5351 20.2103 12.0912L13.2443 18.8302C10.9947 21.0065 10.8937 24.4352 12.8795 26.4878C14.8653 28.5405 18.2954 28.5531 20.545 26.3767L27.511 19.6377L28.7278 20.8955L21.7618 27.6345C18.8817 30.4208 14.34 30.5144 11.6217 27.7046C8.90346 24.8948 9.14747 20.3587 12.0276 17.5724L18.9936 10.8334C21.2324 8.66752 24.7776 8.58394 26.9079 10.786C29.0382 12.988 28.8373 16.5285 26.5984 18.6944L19.6324 25.4334C18.0347 26.9791 15.486 27.0525 13.9437 25.4583C12.4014 23.864 12.5592 21.3191 14.1569 19.7735L21.1229 13.0345L22.3397 14.2922L15.3737 21.0313C14.4065 21.967 14.3918 23.4045 15.2015 24.2415C16.0112 25.0785 17.4484 25.1114 18.4156 24.1757L25.3817 17.4366C26.9901 15.8806 27.0479 13.4476 25.6501 12.0027Z" fill="black"/>
</g>
<defs>
<clipPath id="clip0_143_15590">
<rect width="28" height="28" fill="white" transform="translate(20.125) rotate(45.9488)"/>
</clipPath>
</defs>
</svg>
