<svg width="42" height="42" viewBox="0 0 42 42" fill="none" xmlns="http://www.w3.org/2000/svg">
<path fill-rule="evenodd" clip-rule="evenodd" d="M36.827 4.87102C37.2175 5.26154 37.2175 5.89471 36.827 6.28523L6.58699 36.5252C6.19647 36.9157 5.5633 36.9157 5.17278 36.5252C4.78225 36.1347 4.78225 35.5015 5.17278 35.111L35.4128 4.87102C35.8033 4.48049 36.4365 4.48049 36.827 4.87102Z" fill="#1E1E35"/>
<path fill-rule="evenodd" clip-rule="evenodd" d="M5.17278 4.87102C5.5633 4.48049 6.19647 4.48049 6.58699 4.87102L36.827 35.111C37.2175 35.5015 37.2175 36.1347 36.827 36.5252C36.4365 36.9157 35.8033 36.9157 35.4128 36.5252L5.17278 6.28523C4.78225 5.89471 4.78225 5.26154 5.17278 4.87102Z" fill="#1E1E35"/>
</svg>
