<svg width="80" height="80" viewBox="0 0 80 80" fill="none" xmlns="http://www.w3.org/2000/svg">
<path fill-rule="evenodd" clip-rule="evenodd" d="M39.9999 1.00009C18.4608 1.00009 0.999975 18.461 0.999973 40C0.999971 61.5391 18.4608 79 39.9999 79C61.539 79 78.9999 61.5391 78.9999 40C78.9999 18.461 61.539 1.00009 39.9999 1.00009ZM39.9999 8.80558e-05C17.9086 8.61245e-05 -2.50894e-05 17.9087 -2.70207e-05 40C-2.8952e-05 62.0914 17.9086 80 39.9999 80C62.0913 80 79.9999 62.0914 79.9999 40C79.9999 17.9087 62.0913 8.99871e-05 39.9999 8.80558e-05Z" fill="#BC861B"/>
<path fill-rule="evenodd" clip-rule="evenodd" d="M36.0912 50.3067C35.7007 49.9162 35.7007 49.283 36.0912 48.8925L44.9841 39.9996L36.0912 31.1067C35.7007 30.7162 35.7007 30.083 36.0912 29.6925C36.4817 29.302 37.1149 29.302 37.5054 29.6925L47.1054 39.2925C47.4959 39.683 47.4959 40.3162 47.1054 40.7067L37.5054 50.3067C37.1149 50.6972 36.4817 50.6972 36.0912 50.3067Z" fill="#BC861B"/>
</svg>
