<svg width="41" height="41" viewBox="0 0 41 41" fill="none" xmlns="http://www.w3.org/2000/svg">
<path fill-rule="evenodd" clip-rule="evenodd" d="M20.5 1.99996C10.2827 1.99996 1.99996 10.2827 1.99996 20.5C1.99996 30.7173 10.2827 39 20.5 39C30.7173 39 39 30.7173 39 20.5C39 10.2827 30.7173 1.99996 20.5 1.99996ZM20.5 -4.37538e-05C9.17813 -4.47436e-05 -3.91797e-05 9.17813 -4.01695e-05 20.5C-4.11593e-05 31.8218 9.17813 41 20.5 41C31.8218 41 41 31.8218 41 20.5C41 9.17813 31.8218 -4.27641e-05 20.5 -4.37538e-05Z" fill="#BC861B"/>
<path fill-rule="evenodd" clip-rule="evenodd" d="M18.1522 26.127C17.7617 25.7365 17.7617 25.1033 18.1522 24.7128L22.3651 20.4999L18.1522 16.287C17.7617 15.8965 17.7617 15.2633 18.1522 14.8728C18.5427 14.4823 19.1759 14.4823 19.5664 14.8728L24.4864 19.7928C24.8769 20.1833 24.8769 20.8165 24.4864 21.207L19.5664 26.127C19.1759 26.5176 18.5427 26.5176 18.1522 26.127Z" fill="#BC861B"/>
</svg>
