<svg width="41" height="41" viewBox="0 0 41 41" fill="none" xmlns="http://www.w3.org/2000/svg">
<path fill-rule="evenodd" clip-rule="evenodd" d="M20.5 39C30.7173 39 39 30.7173 39 20.5C39 10.2827 30.7173 2 20.5 2C10.2827 2 2 10.2827 2 20.5C2 30.7173 10.2827 39 20.5 39ZM20.5 41C31.8219 41 41 31.8219 41 20.5C41 9.17817 31.8219 0 20.5 0C9.17817 0 0 9.17817 0 20.5C0 31.8219 9.17817 41 20.5 41Z" fill="#BC861B"/>
<path fill-rule="evenodd" clip-rule="evenodd" d="M22.8478 14.873C23.2383 15.2635 23.2383 15.8967 22.8478 16.2872L18.6349 20.5001L22.8478 24.713C23.2383 25.1035 23.2383 25.7367 22.8478 26.1272C22.4573 26.5177 21.8241 26.5177 21.4336 26.1272L16.5136 21.2072C16.1231 20.8167 16.1231 20.1835 16.5136 19.793L21.4336 14.873C21.8241 14.4824 22.4573 14.4824 22.8478 14.873Z" fill="#BC861B"/>
</svg>
