<svg width="80" height="80" viewBox="0 0 80 80" fill="none" xmlns="http://www.w3.org/2000/svg">
<path fill-rule="evenodd" clip-rule="evenodd" d="M40 78.9999C61.539 78.9999 78.9999 61.539 78.9999 40C78.9999 18.4609 61.539 1 40 1C18.4609 1 1 18.4609 1 40C1 61.539 18.4609 78.9999 40 78.9999ZM40 79.9999C62.0913 79.9999 79.9999 62.0913 79.9999 40C79.9999 17.9086 62.0913 0 40 0C17.9086 0 0 17.9086 0 40C0 62.0913 17.9086 79.9999 40 79.9999Z" fill="#BC861B"/>
<path fill-rule="evenodd" clip-rule="evenodd" d="M43.9087 29.6933C44.2992 30.0838 44.2992 30.717 43.9087 31.1075L35.0158 40.0004L43.9087 48.8933C44.2992 49.2838 44.2992 49.917 43.9087 50.3075C43.5181 50.698 42.885 50.698 42.4944 50.3075L32.8945 40.7075C32.5039 40.317 32.5039 39.6838 32.8945 39.2933L42.4944 29.6933C42.885 29.3028 43.5181 29.3028 43.9087 29.6933Z" fill="#BC861B"/>
</svg>
