<svg width="24" height="24" viewBox="0 0 24 24" fill="none" xmlns="http://www.w3.org/2000/svg">
<path fill-rule="evenodd" clip-rule="evenodd" d="M10.7778 1.75C5.79187 1.75 1.75 5.79187 1.75 10.7778C1.75 15.7637 5.79187 19.8056 10.7778 19.8056C15.7637 19.8056 19.8056 15.7637 19.8056 10.7778C19.8056 5.79187 15.7637 1.75 10.7778 1.75ZM0.25 10.7778C0.25 4.96344 4.96344 0.25 10.7778 0.25C16.5921 0.25 21.3056 4.96345 21.3056 10.7778C21.3056 13.4062 20.3423 15.8096 18.7496 17.6544L23.5322 22.4716C23.8241 22.7655 23.8224 23.2404 23.5284 23.5322C23.2345 23.8241 22.7596 23.8224 22.4678 23.5284L17.6914 18.7175C15.8419 20.3294 13.4238 21.3056 10.7778 21.3056C4.96345 21.3056 0.25 16.5921 0.25 10.7778Z" fill="white"/>
</svg>
